<?xml version="1.0" encoding="UTF-8"?>
<svg xmlns="http://www.w3.org/2000/svg" xmlns:xlink="http://www.w3.org/1999/xlink" width="3750" height="3750" viewBox="0 0 3750 3750">
<path fill-rule="evenodd" fill="rgb(100%, 100%, 100%)" fill-opacity="1" d="M 8.65625 0 L 3741.339844 0 C 3746.140625 0 3750 3.859375 3750 8.660156 L 3750 3741.34375 C 3750 3746.136719 3746.140625 3750 3741.339844 3750 L 8.65625 3750 C 3.863281 3750 0 3746.136719 0 3741.34375 L 0 8.660156 C 0 3.859375 3.863281 0 8.65625 0 Z M 8.65625 0 "/>
<path fill-rule="evenodd" fill="rgb(59.959412%, 91.40625%, 94.921875%)" fill-opacity="1" d="M 3562.5 1875 C 3562.5 2322.550781 3384.710938 2751.773438 3068.238281 3068.242188 C 2751.769531 3384.710938 2322.550781 3562.5 1875 3562.5 C 1427.441406 3562.5 998.226562 3384.710938 681.757812 3068.242188 C 365.289062 2751.773438 187.5 2322.550781 187.5 1875 C 187.5 1427.441406 365.289062 998.230469 681.757812 681.761719 C 998.226562 365.289062 1427.441406 187.5 1875 187.5 C 2322.550781 187.5 2751.769531 365.289062 3068.238281 681.761719 C 3384.710938 998.230469 3562.5 1427.441406 3562.5 1875 Z M 3562.5 1875 "/>
<path fill-rule="nonzero" fill="rgb(0%, 78.125%, 100%)" fill-opacity="1" d="M 1152.339844 1282.179688 L 1225.558594 2128.371094 L 1733.730469 1966.890625 Z M 1152.339844 1282.179688 "/>
<path fill-rule="nonzero" fill="rgb(30.200195%, 45.483398%, 54.881287%)" fill-opacity="1" d="M 2383.769531 1792.808594 L 1225.558594 2128.359375 C 1225.558594 2128.359375 610.492188 2466.128906 557.160156 2592.789062 C 541.722656 2629.449219 519.425781 2726.878906 495.609375 2845.765625 C 811.441406 3294.835938 1325.988281 3562.195312 1875 3562.496094 C 2187.171875 3562.3125 2493.171875 3475.542969 2758.96875 3311.832031 C 3024.769531 3148.125 3239.949219 2913.898438 3380.578125 2635.199219 C 3379.859375 2402.371094 3351.21875 2193.621094 3263.738281 2106.140625 C 3017.078125 1859.480469 2383.769531 1792.808594 2383.769531 1792.808594 Z M 2383.769531 1792.808594 "/>
<path fill-rule="nonzero" fill="rgb(11.767578%, 24.31488%, 34.910583%)" fill-opacity="1" d="M 687.027344 2536.148438 C 685.199219 2534.378906 682.289062 2534.429688 680.523438 2536.261719 C 678.75 2538.070312 678.78125 2540.980469 680.59375 2542.761719 C 680.59375 2542.761719 759.625 2619.671875 845.082031 2718.519531 C 930.535156 2817.382812 1022.328125 2938.609375 1047.679688 3024.828125 C 1048.410156 3027.257812 1050.960938 3028.640625 1053.390625 3027.917969 C 1055.820312 3027.191406 1057.199219 3024.636719 1056.480469 3022.207031 C 1030.109375 2932.511719 937.757812 2811.71875 852.015625 2712.53125 C 766.269531 2613.328125 687.027344 2536.148438 687.027344 2536.148438 Z M 687.027344 2536.148438 "/>
<path fill-rule="nonzero" fill="rgb(11.767578%, 24.31488%, 34.910583%)" fill-opacity="1" d="M 1504.761719 1816.070312 C 1504.761719 1816.070312 1274.128906 1913.25 1274.128906 2052.03125 C 1274.128906 2190.820312 1225.558594 2128.371094 1225.558594 2128.371094 L 1294.949219 2260.210938 L 1218.621094 2315.71875 C 1218.621094 2315.71875 1634.96875 2621.050781 1676.609375 2607.171875 C 1718.238281 2593.289062 2363.578125 2225.519531 2412.160156 1892.429688 C 2460.730469 1559.359375 2210.921875 1531.601562 2210.921875 1531.601562 Z M 1504.761719 1816.070312 "/>
<path fill-rule="nonzero" fill="rgb(96.09375%, 73.631287%, 59.959412%)" fill-opacity="1" d="M 1152.339844 1282.179688 C 1152.339844 1282.179688 1445.859375 2170.101562 1592.628906 2148.089844 C 1739.390625 2126.070312 2135.648438 1773.839844 2135.648438 1773.839844 L 2113.628906 1091.390625 L 1489.890625 981.320312 Z M 1152.339844 1282.179688 "/>
<path fill-rule="nonzero" fill="rgb(30.200195%, 45.483398%, 54.881287%)" fill-opacity="1" d="M 2087.261719 1876.191406 C 2086.039062 1876.289062 2084.921875 1876.871094 2084.128906 1877.808594 C 1868.179688 2132.519531 1594.339844 2187.851562 1594.339844 2187.851562 C 1591.851562 2188.359375 1590.238281 2190.78125 1590.75 2193.269531 C 1591.25 2195.769531 1593.679688 2197.371094 1596.171875 2196.871094 C 1596.171875 2196.871094 1873.128906 2140.910156 2091.140625 1883.769531 C 2092.789062 1881.828125 2092.550781 1878.910156 2090.601562 1877.269531 C 2089.671875 1876.480469 2088.46875 1876.089844 2087.261719 1876.191406 Z M 2087.261719 1876.191406 "/>
<path fill-rule="nonzero" fill="rgb(94.921875%, 54.101562%, 50.193787%)" fill-opacity="1" d="M 2002.75 1205.460938 C 2002.75 1205.460938 2134.589844 2759.832031 1801.511719 3356.597656 C 1801.511719 3356.597656 2311.539062 3106.789062 2342.769531 2142.25 C 2342.769531 2142.25 2731.359375 1975.699219 2703.601562 1767.53125 C 2675.851562 1559.359375 2405.21875 1538.539062 2373.988281 1177.699219 Z M 2002.75 1205.460938 "/>
<path fill-rule="nonzero" fill="rgb(30.200195%, 45.483398%, 54.881287%)" fill-opacity="1" d="M 1091.769531 1264.621094 C 1091.769531 1264.621094 1017.390625 1125.660156 1124.941406 1011.160156 C 1124.941406 1011.160156 1471.898438 74.371094 1957.640625 518.480469 C 1957.640625 518.480469 2280.308594 515.011719 2335.828125 1004.21875 L 1780.691406 1344.238281 Z M 1091.769531 1264.621094 "/>
<path fill-rule="nonzero" fill="rgb(11.767578%, 24.31488%, 34.910583%)" fill-opacity="1" d="M 1070.691406 2774.855469 C 1070.078125 2774.828125 1069.480469 2774.921875 1068.910156 2775.128906 L 1068.910156 2775.140625 C 1067.78125 2775.546875 1066.851562 2776.382812 1066.320312 2777.46875 C 1066.320312 2777.46875 1009.519531 2897.703125 964.410156 3038.875 C 941.855469 3109.460938 922.234375 3185.285156 914.054688 3254.1875 C 913.78125 3256.5 913.542969 3258.789062 913.296875 3261.085938 C 916.144531 3263.203125 918.996094 3265.308594 921.859375 3267.40625 C 922.257812 3263.398438 922.699219 3259.359375 923.179688 3255.296875 C 931.25 3187.328125 950.738281 3111.921875 973.183594 3041.679688 C 1018.070312 2901.195312 1074.621094 2781.421875 1074.621094 2781.421875 C 1075.71875 2779.121094 1074.730469 2776.367188 1072.429688 2775.28125 C 1071.878906 2775.027344 1071.289062 2774.882812 1070.691406 2774.855469 Z M 1070.691406 2774.855469 "/>
<path fill-rule="nonzero" fill="rgb(94.921875%, 54.101562%, 50.193787%)" fill-opacity="1" d="M 1282.210938 1593.449219 L 1273.199219 1595.28125 C 1273.199219 1595.28125 1319.089844 1818.558594 1340.339844 2040.101562 C 1350.960938 2150.871094 1355.359375 2261.269531 1344.929688 2342.640625 C 1339.71875 2383.320312 1330.710938 2416.730469 1317.421875 2439.050781 C 1304.121094 2461.371094 1287.421875 2472.558594 1264.46875 2471.128906 C 1167.03125 2465.039062 1117.839844 2424.351562 1092.328125 2385.351562 C 1066.828125 2346.339844 1065.359375 2309.089844 1065.359375 2309.089844 L 1065.359375 2309.011719 L 1020.988281 1776.648438 L 1013.628906 1789.191406 C 1013.628906 1789.191406 919.371094 1949.808594 853.703125 2159.179688 C 788.035156 2368.550781 750.546875 2627.160156 865.699219 2823.230469 L 873.640625 2818.5625 C 760.722656 2626.300781 797.183594 2370.199219 862.503906 2161.949219 C 923.539062 1967.359375 1003.339844 1826.871094 1014.339844 1807.71875 L 1056.160156 2309.480469 C 1056.160156 2309.480469 1057.75 2349.25 1084.640625 2390.371094 C 1111.539062 2431.5 1164.078125 2474.050781 1263.890625 2480.28125 C 1290.25 2481.929688 1310.910156 2467.941406 1325.320312 2443.75 C 1339.730469 2419.558594 1348.761719 2385.148438 1354.058594 2343.78125 C 1364.660156 2261.050781 1360.148438 2150.339844 1349.5 2039.238281 C 1328.191406 1817.03125 1282.210938 1593.449219 1282.210938 1593.449219 Z M 1282.210938 1593.449219 "/>
<path fill-rule="nonzero" fill="rgb(94.921875%, 54.101562%, 50.193787%)" fill-opacity="1" d="M 1322.710938 1385.871094 C 1322.710938 1385.871094 1260.261719 2850.039062 1357.410156 3162.300781 C 1357.410156 3162.300781 1267.191406 2988.824219 1232.5 2766.769531 C 1232.5 2766.769531 1246.378906 3224.753906 1294.949219 3335.78125 C 1294.949219 3335.78125 947.992188 3106.789062 927.175781 2662.679688 C 927.175781 2662.679688 857.785156 2961.066406 1052.078125 3023.519531 C 1052.078125 3023.519531 698.183594 2954.125 878.601562 2232.449219 C 1059.019531 1510.78125 1152.339844 1282.179688 1152.339844 1282.179688 Z M 1322.710938 1385.871094 "/>
<path fill-rule="nonzero" fill="rgb(13.330078%, 25.87738%, 36.863708%)" fill-opacity="1" d="M 1965.621094 1056.859375 L 2335.828125 1004.21875 C 2335.828125 1004.21875 2394.808594 1136.070312 2373.988281 1177.699219 L 1940.289062 1378.941406 Z M 1965.621094 1056.859375 "/>
<path fill-rule="nonzero" fill="rgb(30.200195%, 45.483398%, 54.881287%)" fill-opacity="1" d="M 1023.351562 1240.449219 C 1023.351562 1240.449219 1575.75 956.53125 1998.53125 1005.910156 C 1998.53125 1005.910156 2128.140625 1132.441406 2054.078125 1413.269531 C 2054.078125 1413.269531 1659.070312 1592.261719 1618.949219 1586.089844 C 1578.828125 1579.910156 1510.941406 1490.421875 1510.941406 1490.421875 C 1510.941406 1490.421875 1433.789062 1586.089844 1455.390625 1629.289062 L 1174.558594 1660.148438 C 1174.558594 1660.148438 1038.78125 1530.539062 1023.351562 1240.449219 Z M 1023.351562 1240.449219 "/>
<path fill-rule="nonzero" fill="rgb(54.101562%, 68.943787%, 74.804688%)" fill-opacity="1" d="M 1091.769531 1264.621094 C 1091.769531 1264.621094 1615.269531 1018.148438 1965.621094 1056.859375 C 1965.621094 1056.859375 2065.429688 1260.550781 2010.429688 1370.539062 L 1617.308594 1521.28125 C 1617.308594 1521.28125 1525.640625 1454.058594 1509.351562 1399.058594 C 1509.351562 1399.058594 1411.570312 1500.910156 1413.609375 1578.308594 L 1189.550781 1604.789062 C 1189.550781 1604.789062 1077.519531 1454.058594 1091.769531 1264.621094 Z M 1091.769531 1264.621094 "/>
<path fill-rule="nonzero" fill="rgb(94.139099%, 61.131287%, 40.795898%)" fill-opacity="1" d="M 1455.390625 1629.289062 L 1577.089844 1644.898438 C 1577.089844 1644.898438 1516.921875 1734.21875 1455.390625 1629.289062 Z M 1455.390625 1629.289062 "/>
<path fill-rule="nonzero" fill="rgb(11.767578%, 11.767578%, 11.767578%)" fill-opacity="1" d="M 1780.058594 1703.980469 C 1778.070312 1702.390625 1775.179688 1702.710938 1773.589844 1704.699219 C 1698.21875 1799.210938 1631.429688 1825.441406 1583.710938 1828.671875 C 1535.980469 1831.890625 1507.339844 1812.289062 1507.339844 1812.289062 C 1505.238281 1810.851562 1502.378906 1811.378906 1500.941406 1813.46875 C 1499.511719 1815.570312 1500.058594 1818.441406 1502.160156 1819.871094 C 1502.160156 1819.871094 1533.800781 1841.238281 1584.320312 1837.828125 C 1634.839844 1834.421875 1704.261719 1806.390625 1780.769531 1710.449219 C 1782.359375 1708.460938 1782.039062 1705.570312 1780.058594 1703.980469 Z M 1780.058594 1703.980469 "/>
<path fill-rule="nonzero" fill="rgb(11.767578%, 24.31488%, 34.910583%)" fill-opacity="1" d="M 1715 855.109375 C 1664.691406 856.671875 1614.441406 861.199219 1566.289062 867.398438 C 1373.660156 892.179688 1213.710938 944.339844 1213.710938 944.339844 C 1211.308594 945.128906 1209.988281 947.71875 1210.769531 950.128906 C 1211.550781 952.558594 1214.160156 953.871094 1216.589844 953.070312 C 1216.589844 953.070312 1375.828125 901.140625 1567.46875 876.488281 C 1759.109375 851.828125 1982.679688 854.988281 2110.820312 962.628906 C 2112.761719 964.261719 2115.648438 964.019531 2117.289062 962.089844 C 2118.929688 960.140625 2118.679688 957.21875 2116.71875 955.589844 C 2017.660156 872.378906 1865.941406 850.441406 1715 855.109375 Z M 1715 855.109375 "/>
<path fill-rule="nonzero" fill="rgb(30.200195%, 45.483398%, 54.881287%)" fill-opacity="1" d="M 1891.019531 2190.621094 C 1889.429688 2190.300781 1887.789062 2190.851562 1886.710938 2192.050781 C 1756.980469 2336.949219 1626.828125 2337.769531 1527.921875 2303.089844 C 1429.011719 2268.398438 1362.179688 2197.550781 1362.179688 2197.550781 C 1360.441406 2195.691406 1357.53125 2195.589844 1355.679688 2197.328125 C 1353.820312 2199.070312 1353.71875 2201.980469 1355.460938 2203.839844 C 1355.460938 2203.839844 1423.519531 2276.230469 1524.898438 2311.78125 C 1609.988281 2341.621094 1719.128906 2343.839844 1829.910156 2257.140625 C 1812.660156 2277.179688 1809.851562 2281.699219 1786.949219 2306.390625 C 1760.410156 2335.011719 1732.261719 2363.71875 1707.558594 2385.308594 C 1695.21875 2396.109375 1683.71875 2405.121094 1673.871094 2411.429688 C 1664.019531 2417.730469 1655.691406 2421.148438 1650.660156 2421.410156 C 1639.640625 2421.988281 1618.359375 2414.179688 1594.230469 2401.410156 C 1570.101562 2388.628906 1542.640625 2371.210938 1516.820312 2353.699219 C 1465.171875 2318.691406 1420.078125 2283.289062 1420.078125 2283.289062 C 1418.078125 2281.71875 1415.179688 2282.078125 1413.621094 2284.089844 C 1412.039062 2286.089844 1412.398438 2288.980469 1414.410156 2290.550781 C 1414.410156 2290.550781 1459.679688 2326.089844 1511.648438 2361.320312 C 1537.628906 2378.929688 1565.289062 2396.480469 1589.921875 2409.519531 C 1614.558594 2422.570312 1635.730469 2431.421875 1651.128906 2430.609375 C 1659.308594 2430.179688 1668.371094 2425.890625 1678.828125 2419.191406 C 1689.289062 2412.488281 1701.039062 2403.230469 1713.601562 2392.25 C 1738.71875 2370.28125 1767.039062 2341.390625 1793.699219 2312.640625 C 1846.910156 2255.261719 1893.261719 2198.550781 1893.460938 2198.300781 L 1893.570312 2198.191406 L 1893.679688 2198.050781 C 1895.890625 2195.359375 1894.429688 2191.28125 1891.019531 2190.609375 Z M 1891.019531 2190.621094 "/>
<path fill-rule="nonzero" fill="rgb(11.767578%, 24.31488%, 34.910583%)" fill-opacity="1" d="M 2934.398438 2235.730469 C 2934.398438 2235.730469 2810.949219 2324.160156 2679.109375 2437.648438 C 2613.179688 2494.390625 2545.148438 2557.410156 2489.328125 2618.871094 C 2433.511719 2680.339844 2389.808594 2740.109375 2372.730469 2791.335938 C 2305.640625 2992.609375 2252.539062 3445.542969 2252.539062 3445.542969 C 2252.21875 3448.074219 2254.019531 3450.382812 2256.558594 3450.679688 C 2259.089844 3450.976562 2261.378906 3449.152344 2261.660156 3446.621094 C 2261.660156 3446.621094 2315.21875 2992.960938 2381.460938 2794.246094 C 2397.71875 2745.480469 2440.699219 2686.078125 2496.121094 2625.050781 C 2551.539062 2564.019531 2619.359375 2501.210938 2685.109375 2444.621094 C 2816.589844 2331.441406 2939.75 2243.199219 2939.75 2243.199219 C 2941.828125 2241.730469 2942.320312 2238.851562 2940.828125 2236.769531 C 2939.351562 2234.710938 2936.46875 2234.238281 2934.398438 2235.730469 Z M 2934.398438 2235.730469 "/>
<path fill-rule="nonzero" fill="rgb(11.767578%, 24.31488%, 34.910583%)" fill-opacity="1" d="M 3046.410156 2659.75 C 3011.910156 2660.859375 2974.308594 2667.671875 2935.160156 2678.359375 C 2856.851562 2699.75 2772.238281 2736.949219 2694.160156 2777.039062 C 2537.980469 2857.214844 2407.789062 2949.03125 2407.789062 2949.03125 C 2405.71875 2950.492188 2405.21875 2953.351562 2406.679688 2955.425781 C 2408.140625 2957.496094 2410.988281 2957.992188 2413.070312 2956.542969 C 2413.070312 2956.542969 2542.878906 2865.015625 2698.359375 2785.195312 C 2776.101562 2745.28125 2860.25 2708.351562 2937.558594 2687.230469 C 3014.878906 2666.121094 3085.191406 2661.070312 3135.171875 2683.640625 C 3137.488281 2684.699219 3140.230469 2683.671875 3141.28125 2681.339844 C 3142.308594 2679.03125 3141.289062 2676.320312 3138.980469 2675.269531 C 3112.300781 2663.230469 3080.910156 2658.640625 3046.410156 2659.75 Z M 3046.410156 2659.75 "/>
<path fill-rule="nonzero" fill="rgb(59.959412%, 91.40625%, 94.921875%)" fill-opacity="1" d="M 1877.03125 1052.820312 C 1841.519531 1053.210938 1804.960938 1055.789062 1767.941406 1060.101562 L 1965.839844 1387.640625 L 2010.429688 1370.539062 C 2017.5 1356.429688 2021.988281 1340.75 2024.480469 1324.171875 Z M 1638.539062 1081.269531 C 1589.789062 1091.328125 1541.480469 1103.441406 1494.878906 1116.589844 L 1747.03125 1471.539062 L 1840.570312 1435.671875 Z M 1265.28125 1192.699219 C 1160.808594 1232.171875 1091.78125 1264.621094 1091.78125 1264.621094 C 1090.738281 1278.421875 1090.378906 1292.011719 1090.589844 1305.359375 C 1155.078125 1403.871094 1224.210938 1510.179688 1277.699219 1594.371094 L 1413.609375 1578.308594 C 1412.671875 1542.609375 1432.980469 1501.71875 1455.121094 1468.011719 Z M 1265.28125 1192.699219 "/>
<path fill-rule="nonzero" fill="rgb(94.921875%, 54.101562%, 50.193787%)" fill-opacity="1" d="M 2648.140625 1701.898438 L 2641.710938 1708.46875 C 2641.710938 1708.46875 2709.5 1774.71875 2698.929688 1878.890625 C 2688.371094 1983.058594 2599.089844 2126.730469 2279.261719 2280.488281 L 2283.25 2288.789062 C 2604.488281 2134.351562 2697.050781 1988.28125 2708.058594 1879.78125 C 2719.070312 1771.289062 2648.140625 1701.898438 2648.140625 1701.898438 Z M 2648.140625 1701.898438 "/>
<path fill-rule="nonzero" fill="rgb(94.921875%, 54.101562%, 50.193787%)" fill-opacity="1" d="M 1998.210938 1204.78125 C 1998.210938 1204.78125 1969.171875 1402.410156 1964.050781 1647.078125 C 1958.929688 1891.761719 1977.449219 2183.53125 2073.75 2373.03125 L 2081.941406 2368.859375 C 1987.160156 2182.351562 1968.128906 1891.351562 1973.238281 1647.300781 C 1978.351562 1403.238281 2007.300781 1206.140625 2007.300781 1206.140625 Z M 1998.210938 1204.78125 "/>
<path fill-rule="nonzero" fill="rgb(30.200195%, 45.483398%, 54.881287%)" fill-opacity="1" d="M 2311.730469 1452.238281 C 2309.230469 1451.808594 2306.859375 1453.480469 2306.421875 1455.980469 C 2306.421875 1455.980469 2278.230469 1618.308594 2298.300781 1750.609375 C 2308.328125 1816.761719 2330.351562 1876.050781 2375.710938 1903.199219 C 2398.390625 1916.78125 2426.75 1921.929688 2461.199219 1915.808594 C 2495.648438 1909.699219 2536.308594 1892.480469 2584.519531 1861.320312 C 2586.660156 1859.941406 2587.269531 1857.089844 2585.890625 1854.960938 C 2584.511719 1852.828125 2581.660156 1852.21875 2579.53125 1853.601562 C 2532 1884.308594 2492.328125 1900.949219 2459.589844 1906.761719 C 2426.851562 1912.570312 2401.140625 1907.691406 2380.449219 1895.300781 C 2339.078125 1870.53125 2317.238281 1814.210938 2307.390625 1749.25 C 2287.679688 1619.320312 2315.5 1457.558594 2315.5 1457.558594 C 2315.941406 1455.050781 2314.25 1452.660156 2311.730469 1452.238281 Z M 2311.730469 1452.238281 "/>
<path fill-rule="nonzero" fill="rgb(30.200195%, 45.483398%, 54.881287%)" fill-opacity="1" d="M 2376 1572.328125 C 2373.460938 1572.210938 2371.300781 1574.171875 2371.179688 1576.710938 C 2371.179688 1576.710938 2368.128906 1639.398438 2392.878906 1701.648438 C 2405.25 1732.769531 2424.628906 1763.910156 2455.019531 1786.929688 C 2485.421875 1809.941406 2526.78125 1824.628906 2582.148438 1823.140625 C 2584.691406 1823.058594 2586.691406 1820.929688 2586.609375 1818.390625 C 2586.53125 1815.871094 2584.429688 1813.878906 2581.898438 1813.941406 C 2528.261719 1815.390625 2489.308594 1801.328125 2460.589844 1779.601562 C 2431.878906 1757.859375 2413.328125 1728.25 2401.390625 1698.230469 C 2377.53125 1638.210938 2380.378906 1577.140625 2380.378906 1577.140625 C 2380.5 1574.601562 2378.539062 1572.441406 2376 1572.328125 Z M 2376 1572.328125 "/>
<path fill-rule="nonzero" fill="rgb(30.200195%, 45.483398%, 54.881287%)" fill-opacity="1" d="M 1225.558594 2128.371094 C 1223.050781 2127.960938 1220.679688 2129.660156 1220.28125 2132.171875 C 1220.28125 2132.171875 1167.148438 2462.660156 1202.570312 2846.335938 C 1202.820312 2848.867188 1205.070312 2850.714844 1207.601562 2850.464844 C 1210.109375 2850.21875 1211.960938 2847.988281 1211.730469 2845.472656 C 1176.441406 2463.109375 1229.371094 2133.609375 1229.371094 2133.609375 C 1229.761719 2131.109375 1228.058594 2128.769531 1225.558594 2128.371094 Z M 1225.558594 2128.371094 "/>
<path fill-rule="nonzero" fill="rgb(30.200195%, 45.483398%, 54.881287%)" fill-opacity="1" d="M 1220.460938 1768.5 C 1218.019531 1767.808594 1215.480469 1769.21875 1214.789062 1771.660156 C 1214.789062 1771.660156 1107.390625 2148.269531 1138.671875 2419.371094 C 1138.96875 2421.871094 1141.230469 2423.660156 1143.730469 2423.390625 C 1146.269531 2423.109375 1148.089844 2420.820312 1147.789062 2418.289062 C 1116.898438 2150.550781 1223.628906 1774.171875 1223.628906 1774.171875 C 1224.320312 1771.730469 1222.898438 1769.191406 1220.460938 1768.5 Z M 1220.460938 1768.5 "/>
<path fill-rule="nonzero" fill="rgb(100%, 100%, 100%)" fill-opacity="1" d="M 614.742188 1453.570312 C 607.824219 1453.570312 602.21875 1459.179688 602.21875 1466.089844 L 602.21875 1512.5 L 586.367188 1496.671875 C 581.476562 1491.78125 573.550781 1491.78125 568.660156 1496.671875 C 566.3125 1499.019531 564.992188 1502.199219 564.992188 1505.519531 C 564.992188 1508.851562 566.3125 1512.039062 568.660156 1514.378906 L 602.21875 1547.910156 L 602.21875 1652.179688 L 531.601562 1581.558594 L 531.601562 1530.449219 C 531.601562 1523.539062 525.996094 1517.929688 519.078125 1517.929688 C 515.753906 1517.929688 512.570312 1519.25 510.21875 1521.589844 C 507.867188 1523.941406 506.546875 1527.128906 506.546875 1530.449219 L 506.546875 1556.5 L 470.640625 1520.589844 C 468.292969 1518.25 465.109375 1516.929688 461.785156 1516.929688 C 458.464844 1516.929688 455.28125 1518.25 452.933594 1520.589844 C 448.042969 1525.480469 448.042969 1533.410156 452.933594 1538.308594 L 485.125 1570.5 L 465.0625 1570.5 C 458.144531 1570.5 452.539062 1576.101562 452.539062 1583.019531 C 452.539062 1589.941406 458.144531 1595.539062 465.0625 1595.539062 L 510.164062 1595.539062 L 584.496094 1669.878906 L 484.210938 1669.878906 L 450.730469 1636.421875 C 448.382812 1634.070312 445.195312 1632.75 441.871094 1632.75 C 438.550781 1632.75 435.367188 1634.070312 433.019531 1636.421875 C 428.128906 1641.308594 428.128906 1649.238281 433.019531 1654.128906 L 448.785156 1669.878906 L 398.429688 1669.878906 C 391.515625 1669.878906 385.90625 1675.488281 385.90625 1682.410156 C 385.90625 1689.320312 391.515625 1694.929688 398.429688 1694.929688 L 448.855469 1694.929688 L 432.015625 1711.78125 C 429.664062 1714.128906 428.34375 1717.320312 428.34375 1720.640625 C 428.34375 1723.960938 429.664062 1727.148438 432.015625 1729.5 C 434.363281 1731.839844 437.550781 1733.160156 440.871094 1733.160156 C 444.195312 1733.160156 447.378906 1731.839844 449.730469 1729.5 L 484.265625 1694.929688 L 584.53125 1694.929688 L 510.144531 1769.320312 L 460.976562 1769.320312 C 454.0625 1769.320312 448.453125 1774.929688 448.453125 1781.839844 C 448.453125 1788.761719 454.0625 1794.371094 460.976562 1794.371094 L 485.097656 1794.371094 L 452.933594 1826.53125 C 450.582031 1828.878906 449.261719 1832.070312 449.261719 1835.390625 C 449.261719 1838.710938 450.582031 1841.898438 452.933594 1844.25 C 457.824219 1849.140625 465.75 1849.140625 470.640625 1844.25 L 502.464844 1812.421875 L 502.464844 1834.429688 C 502.464844 1841.351562 508.070312 1846.960938 514.988281 1846.960938 C 518.308594 1846.960938 521.496094 1845.640625 523.847656 1843.289062 C 526.195312 1840.941406 527.515625 1837.761719 527.515625 1834.429688 L 527.515625 1787.371094 L 602.21875 1712.671875 L 602.21875 1814.230469 L 568.660156 1847.769531 C 566.304688 1850.121094 564.980469 1853.308594 564.980469 1856.628906 C 564.980469 1859.960938 566.304688 1863.148438 568.660156 1865.5 C 573.550781 1870.390625 581.476562 1870.390625 586.367188 1865.5 L 602.21875 1849.648438 L 602.21875 1898.738281 C 602.21875 1902.058594 603.535156 1905.25 605.882812 1907.601562 C 608.234375 1909.949219 611.417969 1911.269531 614.742188 1911.269531 C 618.066406 1911.269531 621.25 1909.949219 623.597656 1907.601562 C 625.949219 1905.25 627.265625 1902.058594 627.265625 1898.738281 L 627.265625 1849.738281 L 644.023438 1866.5 C 646.371094 1868.859375 649.558594 1870.179688 652.878906 1870.179688 C 656.203125 1870.179688 659.386719 1868.859375 661.734375 1866.5 C 666.625 1861.609375 666.625 1853.691406 661.734375 1848.800781 L 627.265625 1814.328125 L 627.265625 1712.648438 L 699.824219 1785.210938 L 699.824219 1831.699219 C 699.824219 1838.609375 705.433594 1844.21875 712.347656 1844.21875 C 719.265625 1844.21875 724.871094 1838.609375 724.871094 1831.699219 L 724.871094 1810.261719 L 758.851562 1844.25 C 761.199219 1846.601562 764.390625 1847.929688 767.71875 1847.929688 C 771.042969 1847.929688 774.234375 1846.601562 776.582031 1844.25 C 778.933594 1841.898438 780.253906 1838.710938 780.253906 1835.390625 C 780.253906 1832.070312 778.933594 1828.878906 776.582031 1826.53125 L 741.707031 1791.648438 L 766.359375 1791.648438 C 773.273438 1791.648438 778.882812 1786.050781 778.882812 1779.128906 C 778.882812 1775.808594 777.5625 1772.621094 775.214844 1770.269531 C 772.867188 1767.921875 769.679688 1766.601562 766.359375 1766.601562 L 716.652344 1766.601562 L 644.980469 1694.929688 L 752.269531 1694.929688 L 786.808594 1729.5 C 789.160156 1731.851562 792.351562 1733.179688 795.675781 1733.179688 C 799.003906 1733.179688 802.195312 1731.851562 804.542969 1729.5 C 806.894531 1727.148438 808.210938 1723.960938 808.210938 1720.640625 C 808.210938 1717.320312 806.894531 1714.128906 804.542969 1711.78125 L 787.683594 1694.929688 L 831.078125 1694.929688 C 834.402344 1694.929688 837.589844 1693.609375 839.9375 1691.261719 C 842.289062 1688.910156 843.609375 1685.730469 843.609375 1682.410156 C 843.609375 1679.078125 842.289062 1675.890625 839.9375 1673.550781 C 837.589844 1671.199219 834.402344 1669.878906 831.078125 1669.878906 L 787.75 1669.878906 L 803.515625 1654.128906 C 808.402344 1649.238281 808.402344 1641.308594 803.515625 1636.421875 C 801.167969 1634.070312 797.980469 1632.75 794.660156 1632.75 C 791.339844 1632.75 788.15625 1634.070312 785.804688 1636.421875 L 752.320312 1669.878906 L 645.003906 1669.878906 L 716.605469 1598.28125 L 765.699219 1598.28125 C 772.613281 1598.28125 778.222656 1592.671875 778.222656 1585.761719 C 778.21875 1578.839844 772.613281 1573.230469 765.699219 1573.230469 L 741.652344 1573.230469 L 776.582031 1538.308594 C 781.472656 1533.410156 781.472656 1525.480469 776.582031 1520.589844 C 774.234375 1518.238281 771.042969 1516.921875 767.71875 1516.921875 C 764.390625 1516.921875 761.199219 1518.238281 758.851562 1520.589844 L 724.210938 1555.230469 L 724.210938 1533.191406 C 724.210938 1526.269531 718.605469 1520.671875 711.6875 1520.671875 C 708.367188 1520.660156 705.179688 1521.980469 702.828125 1524.328125 C 700.476562 1526.679688 699.15625 1529.871094 699.15625 1533.191406 L 699.15625 1580.289062 L 627.265625 1652.191406 L 627.265625 1547.820312 L 661.734375 1513.351562 C 666.625 1508.460938 666.625 1500.539062 661.734375 1495.640625 C 659.386719 1493.300781 656.203125 1491.980469 652.882812 1491.980469 C 649.558594 1491.980469 646.371094 1493.300781 644.023438 1495.640625 L 627.265625 1512.398438 L 627.265625 1466.089844 C 627.265625 1459.179688 621.660156 1453.570312 614.742188 1453.570312 Z M 614.742188 1453.570312 "/>
<path fill-rule="nonzero" fill="rgb(100%, 100%, 100%)" fill-opacity="1" d="M 2705.480469 753.378906 C 2698.128906 756.839844 2694.960938 765.601562 2698.410156 772.949219 L 2721.578125 822.300781 L 2696.820312 813.371094 C 2689.179688 810.609375 2680.75 814.570312 2678 822.210938 C 2676.671875 825.878906 2676.859375 829.929688 2678.519531 833.460938 C 2680.179688 836.988281 2683.171875 839.710938 2686.839844 841.039062 L 2739.25 859.941406 L 2791.300781 970.789062 L 2680.96875 930.960938 L 2655.460938 876.621094 C 2652 869.269531 2643.25 866.109375 2635.890625 869.558594 C 2632.359375 871.21875 2629.628906 874.210938 2628.300781 877.878906 C 2626.980469 881.550781 2627.160156 885.601562 2628.820312 889.128906 L 2641.820312 916.828125 L 2585.71875 896.570312 C 2582.058594 895.25 2578.011719 895.441406 2574.480469 897.089844 C 2570.949219 898.75 2568.21875 901.75 2566.898438 905.410156 C 2564.140625 913.058594 2568.101562 921.480469 2575.730469 924.238281 L 2626.03125 942.398438 L 2604.699219 952.410156 C 2597.351562 955.871094 2594.179688 964.628906 2597.640625 971.980469 C 2601.089844 979.339844 2609.851562 982.5 2617.199219 979.039062 L 2665.160156 956.53125 L 2781.300781 998.460938 L 2674.671875 1048.519531 L 2622.371094 1029.660156 C 2618.699219 1028.328125 2614.648438 1028.519531 2611.121094 1030.179688 C 2607.589844 1031.839844 2604.859375 1034.828125 2603.539062 1038.5 C 2600.78125 1046.140625 2604.738281 1054.570312 2612.378906 1057.328125 L 2637 1066.210938 L 2583.46875 1091.339844 C 2576.109375 1094.789062 2572.949219 1103.558594 2576.398438 1110.910156 C 2579.859375 1118.261719 2588.621094 1121.421875 2595.96875 1117.96875 L 2649.578125 1092.800781 L 2640.089844 1119.121094 C 2638.769531 1122.800781 2638.949219 1126.839844 2640.609375 1130.371094 C 2642.269531 1133.910156 2645.261719 1136.640625 2648.929688 1137.960938 C 2652.601562 1139.289062 2656.648438 1139.101562 2660.179688 1137.441406 C 2663.710938 1135.78125 2666.441406 1132.789062 2667.769531 1129.121094 L 2687.230469 1075.121094 L 2793.828125 1025.078125 L 2751.878906 1141.300781 L 2699.601562 1165.839844 C 2692.25 1169.300781 2689.089844 1178.058594 2692.539062 1185.410156 C 2695.988281 1192.761719 2704.75 1195.929688 2712.109375 1192.46875 L 2737.75 1180.429688 L 2719.609375 1230.691406 C 2718.28125 1234.359375 2718.46875 1238.410156 2720.128906 1241.941406 C 2721.789062 1245.46875 2724.78125 1248.199219 2728.449219 1249.519531 C 2736.089844 1252.28125 2744.519531 1248.320312 2747.28125 1240.679688 L 2765.230469 1190.960938 L 2776.21875 1214.371094 C 2779.671875 1221.71875 2788.429688 1224.878906 2795.78125 1221.429688 C 2799.308594 1219.769531 2802.039062 1216.78125 2803.371094 1213.109375 C 2804.699219 1209.441406 2804.511719 1205.390625 2802.851562 1201.859375 L 2779.359375 1151.820312 L 2821.488281 1035.109375 L 2872.191406 1143.101562 L 2853.25 1195.5 C 2851.921875 1199.171875 2852.109375 1203.230469 2853.769531 1206.761719 C 2855.429688 1210.300781 2858.429688 1213.03125 2862.101562 1214.359375 C 2869.738281 1217.109375 2878.171875 1213.148438 2880.929688 1205.519531 L 2889.871094 1180.75 L 2914.378906 1232.941406 C 2916.03125 1236.480469 2919.019531 1239.210938 2922.699219 1240.539062 C 2926.359375 1241.859375 2930.410156 1241.679688 2933.941406 1240.019531 C 2937.480469 1238.359375 2940.199219 1235.359375 2941.53125 1231.691406 C 2942.851562 1228.019531 2942.660156 1223.96875 2941 1220.441406 L 2916.539062 1168.339844 L 2942.730469 1177.808594 C 2946.398438 1179.128906 2950.449219 1178.941406 2953.980469 1177.289062 C 2957.511719 1175.621094 2960.238281 1172.628906 2961.558594 1168.960938 C 2964.320312 1161.320312 2960.359375 1152.890625 2952.71875 1150.128906 L 2898.871094 1130.691406 L 2848.109375 1022.589844 L 2961.480469 1063.519531 L 2984.679688 1112.941406 C 2988.140625 1120.289062 2996.890625 1123.460938 3004.25 1120 C 3011.601562 1116.550781 3014.769531 1107.789062 3011.308594 1100.441406 L 3000.609375 1077.648438 L 3053.699219 1096.820312 C 3057.378906 1098.148438 3061.429688 1097.96875 3064.96875 1096.308594 C 3068.5 1094.640625 3071.230469 1091.640625 3072.558594 1087.96875 C 3073.878906 1084.300781 3073.699219 1080.25 3072.039062 1076.71875 C 3070.378906 1073.191406 3067.390625 1070.460938 3063.71875 1069.140625 L 3009.21875 1049.460938 L 3035.429688 1037.160156 C 3042.789062 1033.699219 3045.949219 1024.941406 3042.5 1017.589844 C 3040.839844 1014.058594 3037.851562 1011.328125 3034.179688 1010 C 3030.511719 1008.679688 3026.460938 1008.859375 3022.929688 1010.519531 L 2970.078125 1035.328125 L 2858.101562 994.898438 L 2972.171875 941.351562 L 3026.148438 960.859375 C 3029.820312 962.191406 3033.878906 962.011719 3037.410156 960.351562 C 3040.949219 958.691406 3043.679688 955.691406 3045.011719 952.011719 C 3046.328125 948.339844 3046.140625 944.289062 3044.488281 940.761719 C 3042.828125 937.230469 3039.839844 934.5 3036.160156 933.179688 L 3009.820312 923.671875 L 3055.96875 902.011719 C 3059.5 900.359375 3062.230469 897.359375 3063.558594 893.691406 C 3064.878906 890.019531 3064.699219 885.96875 3063.039062 882.441406 C 3061.378906 878.910156 3058.378906 876.179688 3054.710938 874.859375 C 3051.039062 873.53125 3046.988281 873.71875 3043.460938 875.378906 L 2997.390625 897.011719 L 3006.289062 872.390625 C 3009.050781 864.75 3005.089844 856.320312 2997.449219 853.558594 C 2993.789062 852.238281 2989.738281 852.429688 2986.210938 854.078125 C 2982.679688 855.738281 2979.949219 858.730469 2978.628906 862.398438 L 2959.730469 914.691406 L 2845.628906 968.261719 L 2886.019531 856.390625 L 2938.210938 831.890625 C 2945.558594 828.441406 2948.71875 819.679688 2945.269531 812.320312 C 2941.820312 804.96875 2933.058594 801.808594 2925.710938 805.261719 L 2900.140625 817.261719 L 2919.839844 762.691406 C 2922.601562 755.050781 2918.640625 746.621094 2911 743.859375 C 2907.328125 742.53125 2903.28125 742.710938 2899.738281 744.371094 C 2896.199219 746.03125 2893.46875 749.03125 2892.148438 752.710938 L 2872.609375 806.828125 L 2861.609375 783.390625 C 2858.160156 776.039062 2849.390625 772.878906 2842.039062 776.328125 C 2838.511719 777.980469 2835.78125 780.980469 2834.449219 784.648438 C 2833.128906 788.320312 2833.308594 792.371094 2834.96875 795.898438 L 2858.480469 845.96875 L 2817.929688 958.300781 L 2765.839844 847.339844 L 2785.28125 793.488281 C 2788.039062 785.851562 2784.078125 777.421875 2776.449219 774.660156 C 2772.769531 773.339844 2768.730469 773.519531 2765.199219 775.179688 C 2761.660156 776.839844 2758.929688 779.828125 2757.609375 783.5 L 2748.160156 809.679688 L 2725.039062 760.449219 C 2721.589844 753.089844 2712.828125 749.929688 2705.480469 753.378906 Z M 2705.480469 753.378906 "/>
<path fill-rule="evenodd" fill="rgb(100%, 100%, 100%)" fill-opacity="1" d="M 960.351562 822.441406 C 969.046875 855.371094 943.683594 890.628906 903.695312 901.191406 C 863.710938 911.75 824.246094 893.609375 815.550781 860.679688 C 806.855469 827.75 832.21875 792.5 872.207031 781.941406 C 912.191406 771.378906 951.65625 789.519531 960.351562 822.441406 Z M 960.351562 822.441406 "/>
<path fill-rule="evenodd" fill="rgb(100%, 100%, 100%)" fill-opacity="1" d="M 3243.941406 1955.609375 C 3218.359375 2019.570312 3144.300781 2071.410156 3078.519531 2071.410156 C 3012.730469 2071.410156 2980.140625 2019.570312 3005.730469 1955.609375 C 3031.308594 1891.660156 3105.371094 1839.820312 3171.148438 1839.820312 C 3236.929688 1839.820312 3269.519531 1891.660156 3243.941406 1955.609375 Z M 3243.941406 1955.609375 "/>
<path fill-rule="evenodd" fill="rgb(100%, 100%, 100%)" fill-opacity="1" d="M 481.179688 2267.171875 C 469.765625 2305.710938 434.949219 2329.390625 403.410156 2320.050781 C 371.875 2310.710938 355.5625 2271.890625 366.976562 2233.351562 C 378.390625 2194.800781 413.207031 2171.128906 444.746094 2180.46875 C 476.28125 2189.800781 492.59375 2228.621094 481.179688 2267.171875 Z M 481.179688 2267.171875 "/>
<path fill-rule="evenodd" fill="rgb(100%, 100%, 100%)" fill-opacity="1" d="M 1198.269531 552.980469 C 1198.269531 569.429688 1184.941406 582.761719 1168.5 582.761719 C 1152.050781 582.761719 1138.71875 569.429688 1138.71875 552.980469 C 1138.71875 536.539062 1152.050781 523.210938 1168.5 523.210938 C 1184.941406 523.210938 1198.269531 536.539062 1198.269531 552.980469 Z M 1198.269531 552.980469 "/>
<path fill-rule="evenodd" fill="rgb(100%, 100%, 100%)" fill-opacity="1" d="M 3163.320312 2092.210938 C 3149.269531 2127.328125 3108.589844 2155.800781 3072.46875 2155.800781 C 3036.339844 2155.800781 3018.449219 2127.328125 3032.5 2092.210938 C 3046.539062 2057.089844 3087.21875 2028.609375 3123.339844 2028.609375 C 3159.46875 2028.609375 3177.359375 2057.089844 3163.320312 2092.210938 Z M 3163.320312 2092.210938 "/>
</svg>
